<svg width="134" height="53" viewBox="0 0 134 53" fill="none" xmlns="http://www.w3.org/2000/svg">
    <path d="M62.6731 14.3631C62.6731 13.0723 62.9882 11.8991 63.6185 10.8461C64.2487 9.79303 65.0924 8.94957 66.1521 8.31825C67.2118 7.68437 68.3834 7.36743 69.6667 7.36743H80.4723V26.8463H76.5282V11.3343H69.6667C68.8306 11.3343 68.114 11.6333 67.5168 12.2263C66.9196 12.8218 66.6197 13.5452 66.6197 14.3989V19.7766C66.6197 20.6303 66.9196 21.3587 67.5168 21.967C68.114 22.5753 68.8306 22.8795 69.6667 22.8795H74.2842V26.8463H69.6667C68.3834 26.8463 67.2118 26.5294 66.1521 25.8955C65.0924 25.2617 64.2487 24.4131 63.6185 23.3472C62.9882 22.2814 62.6731 21.1031 62.6731 19.8124V14.3605V14.3631Z" fill="white"/>
    <path d="M83.085 14.4015C83.085 13.1108 83.4001 11.9325 84.0303 10.8667C84.6606 9.80082 85.5043 8.95225 86.564 8.31837C87.6237 7.68449 88.7952 7.36755 90.0786 7.36755H94.6961V11.3344H90.0786C89.2425 11.3344 88.5259 11.6386 87.9287 12.2469C87.3315 12.8552 87.0316 13.5862 87.0316 14.4373V19.815C87.0316 20.656 87.3315 21.3767 87.9287 21.9774C88.5259 22.578 89.2425 22.8796 90.0786 22.8796H96.9401V0.111206H100.884V22.8796C100.884 23.971 100.498 24.9039 99.7253 25.681C98.9528 26.458 98.0252 26.8465 96.9401 26.8465H90.0786C88.7952 26.8465 87.6237 26.5295 86.564 25.8957C85.5043 25.2618 84.6606 24.4158 84.0303 23.3576C83.4001 22.2994 83.085 21.1288 83.085 19.8508V14.399V14.4015Z" fill="white"/>
    <path d="M103.684 11.3163C103.684 10.2249 104.073 9.2945 104.853 8.52516C105.631 7.75327 106.569 7.36987 107.667 7.36987H114.49C115.773 7.36987 116.945 7.68681 118.004 8.32069C119.064 8.95456 119.908 9.80314 120.538 10.869C121.168 11.9348 121.484 13.1131 121.484 14.4039V26.8513H117.539V14.4601C117.539 13.5834 117.245 12.8371 116.653 12.2236C116.06 11.6102 115.341 11.3035 114.492 11.3035H107.631V26.8539H103.687V11.3239L103.684 11.3163Z" fill="white"/>
    <path d="M62.6731 39.7874C62.6731 38.4966 62.9984 37.3183 63.6464 36.2525C64.2944 35.1867 65.161 34.3381 66.2461 33.7042C67.3313 33.0704 68.5333 32.7534 69.8548 32.7534H80.7543V36.7203H69.8548C68.9704 36.7203 68.2106 37.0244 67.5752 37.6327C66.9399 38.241 66.6223 38.9772 66.6223 39.8411V45.1242C66.6223 45.9881 66.9374 46.7294 67.5651 47.3428C68.1953 47.9562 68.9577 48.2629 69.8548 48.2629H80.7543V52.2298H69.8548C68.5333 52.2298 67.3313 51.9103 66.2461 51.2713C65.161 50.6323 64.2944 49.7761 63.6464 48.7051C62.9984 47.6342 62.6731 46.4508 62.6731 45.16V39.7823V39.7874Z" fill="white"/>
    <path d="M83.1787 39.7514C83.1787 38.4606 83.4938 37.2874 84.1241 36.2344C84.7543 35.1813 85.598 34.3379 86.6577 33.7066C87.7175 33.0727 88.889 32.7557 90.1723 32.7557H100.978V52.2346H97.0338V36.7226H90.1723C89.3362 36.7226 88.6196 37.0216 88.0224 37.6146C87.4252 38.2101 87.1253 38.9335 87.1253 39.7872V45.1649C87.1253 46.0186 87.4252 46.747 88.0224 47.3553C88.6196 47.9637 89.3362 48.2678 90.1723 48.2678H94.7899V52.2346H90.1723C88.889 52.2346 87.7175 51.9177 86.6577 51.2838C85.598 50.65 84.7543 49.8014 84.1241 48.7356C83.4938 47.6697 83.1787 46.4914 83.1787 45.2007V39.7488V39.7514Z" fill="white"/>
    <path d="M103.779 38.2076C103.779 37.2057 104.03 36.2906 104.536 35.4625C105.042 34.6344 105.712 33.9775 106.554 33.4893C107.395 33.0011 108.327 32.7557 109.349 32.7557H113.667V36.7047H109.349C108.899 36.7047 108.518 36.858 108.2 37.1648C107.883 37.4715 107.723 37.8446 107.723 38.2843V52.2346H103.779V38.2076Z" fill="white"/>
    <path d="M115.535 36.7788C115.535 35.6644 115.939 34.7136 116.749 33.9315C117.56 33.1494 118.531 32.7557 119.667 32.7557H127.743C128.777 32.7557 129.715 33.0088 130.556 33.5174C131.397 34.026 132.071 34.7085 132.574 35.5673C133.08 36.4261 133.331 37.3743 133.331 38.4146V38.959C133.331 39.9865 133.08 40.9246 132.574 41.7706C132.068 42.6166 131.397 43.2939 130.556 43.8C129.715 44.3086 128.777 44.5617 127.743 44.5617H121.723V40.6127H127.779C128.228 40.6127 128.61 40.4492 128.927 40.1245C129.245 39.7974 129.405 39.4038 129.405 38.9411V38.4146C129.405 37.9392 129.245 37.5379 128.927 37.2108C128.61 36.8862 128.226 36.7226 127.779 36.7226H119.479V46.724C119.479 47.1509 119.621 47.5138 119.908 47.8154C120.195 48.117 120.544 48.2678 120.955 48.2678H131.967V52.2346H120.955C119.959 52.2346 119.049 51.9867 118.226 51.4909C117.403 50.995 116.749 50.3305 116.264 49.4972C115.779 48.664 115.535 47.7464 115.535 46.7419V36.7762V36.7788Z" fill="white"/>
    <path d="M36.3073 12.0221H29.3772L26.4217 17.2337L26.4166 17.2439L23.1332 23.0306L19.6085 29.2517L19.6059 29.2569L16.348 35.0001H22.8664L26.0278 40.5746L26.1243 40.7459H12.8919L9.70508 35.1202L9.77115 35.0001L13.0291 29.2569L16.32 23.4523L19.8397 17.2439H19.8524L19.8474 17.2311L22.8003 12.0221L23.1332 11.4368L26.2666 5.90823L29.5551 0.111328L32.8409 5.90823L35.9769 11.4368L36.3073 12.0221Z" fill="white"/>
    <path d="M43.179 46.7877L40.0888 52.2344H0L3.25793 46.4886L6.51586 40.7454H6.56668L9.82461 46.4886L9.8297 46.4963L9.83478 46.4886H36.4344L33.2781 40.9192L33.3747 40.7454L36.564 35.1198L39.7533 40.7454L43.0087 46.4886L43.179 46.7877Z" fill="white"/>
    <path d="M59.1076 52.2348H47.1432L49.8395 47.4832L49.2754 46.489L46.3122 41.2646L46.0174 40.7458L42.7595 35L39.6947 29.5967L39.5016 29.2567L35.9743 23.0304L32.8409 28.5564L32.4444 29.2567H25.8701L26.2666 28.5564L29.555 22.7595L32.6808 17.2438H39.2678L42.9831 23.7972L46.0784 29.2567L49.3364 35L49.5981 35.4652L52.5917 40.7458L53.1254 41.6838L55.8497 46.489L59.1076 52.2348Z" fill="white"/>
</svg>